<svg width="1440" height="1327" viewBox="0 0 1440 1327" fill="none" xmlns="http://www.w3.org/2000/svg">
<path d="M-565.699 7.07768C-484.646 123.681 -328.58 194.897 -186.154 265.888C-43.7268 336.88 105.935 427.637 148.731 553.29C200.826 706.296 73.4552 846.971 92.0924 1001.55C106.502 1121.06 216.696 1239.31 360.016 1289.05C560.152 1358.5 744.839 1279.92 863.242 1170.99C943.678 1096.99 985.984 1009.83 1085.35 948.125C1141.94 912.973 1225.94 906.8 1300.44 907.508C1367.3 908.142 1442.36 916.912 1491.93 957.789C1547.65 1003.75 1545.52 1082.85 1488.17 1116.1C1430.81 1149.36 1331.89 1129.69 1287.94 1076.68C1238.92 1017.58 1268.15 942.863 1284.95 905.622C1376.24 703.102 1689.2 639.857 1779.49 621.62C1870.71 603.19 1948.71 598.072 1996.35 596.436" stroke="#6D5EFF" stroke-width="23" stroke-miterlimit="10"/>
</svg>
